# MagicaVoxel @ Ephtracy

# group
o 

# material
mtllib Bastion.mtl
usemtl palette

# normals
vn -1 0 0
vn 1 0 0
vn 0 0 1
vn 0 0 -1
vn 0 -1 0
vn 0 1 0

# texcoords
vt 0.0253906 0.5
vt 0.0292969 0.5
vt 0.0605469 0.5
vt 0.0683594 0.5
vt 0.0917969 0.5
vt 0.654297 0.5
vt 0.705078 0.5
vt 0.771484 0.5
vt 0.876953 0.5
vt 0.896484 0.5
vt 0.900391 0.5
vt 0.904297 0.5
vt 0.908203 0.5
vt 0.958984 0.5
vt 0.966797 0.5
vt 0.974609 0.5
vt 0.982422 0.5
vt 0.986328 0.5
vt 0.990234 0.5
vt 0.994141 0.5

# verts
v -0.5 0.5 0.1
v -0.5 0.5 -0.1
v -0.5 0.6 0.1
v -0.5 0.6 0
v -0.5 0.6 -0.1
v -0.5 0.7 0.1
v -0.5 0.7 0
v -0.5 0.7 -0.1
v -0.5 0.8 0.1
v -0.5 0.8 0
v -0.5 0.8 -0.1
v -0.4 0.4 0.4
v -0.4 0.4 0.3
v -0.4 0.4 0.2
v -0.4 0.4 0
v -0.4 0.5 0.5
v -0.4 0.5 0.4
v -0.4 0.5 0.3
v -0.4 0.5 0.2
v -0.4 0.5 0.1
v -0.4 0.5 0
v -0.4 0.6 0.5
v -0.4 0.6 0.3
v -0.4 0.6 0.1
v -0.4 0.8 0.1
v -0.4 0.8 0
v -0.4 0.8 -0.1
v -0.4 0.9 0.1
v -0.4 0.9 0
v -0.4 0.9 -0.1
v -0.3 0 0.2
v -0.3 0 -0.2
v -0.3 0.1 0.2
v -0.3 0.1 0.1
v -0.3 0.1 0
v -0.3 0.1 -0.1
v -0.3 0.1 -0.2
v -0.3 0.2 0.2
v -0.3 0.2 0.1
v -0.3 0.2 0
v -0.3 0.2 -0.1
v -0.3 0.3 0.2
v -0.3 0.3 0.1
v -0.3 0.3 0
v -0.3 0.4 0.1
v -0.3 0.4 0
v -0.2 0 -0.2
v -0.2 0 -0.3
v -0.2 0.1 -0.2
v -0.2 0.1 -0.3
v -0.2 0.2 0.1
v -0.2 0.2 0
v -0.2 0.3 0.1
v -0.2 0.3 0
v -0.2 0.3 -0.2
v -0.2 0.4 0
v -0.2 0.4 -0.1
v -0.2 0.4 -0.2
v -0.2 0.4 -0.3
v -0.2 0.4 -0.4
v -0.2 0.4 -0.5
v -0.2 0.5 0.1
v -0.2 0.5 0
v -0.2 0.5 -0.1
v -0.2 0.5 -0.2
v -0.2 0.5 -0.3
v -0.2 0.6 0
v -0.2 0.6 -0.1
v -0.2 0.6 -0.2
v -0.2 0.6 -0.3
v -0.2 0.6 -0.4
v -0.2 0.6 -0.5
v -0.2 0.7 0.1
v -0.2 0.7 0
v -0.2 0.7 -0.1
v -0.1 0.3 -0.2
v -0.1 0.3 -0.3
v -0.1 0.3 -0.4
v -0.1 0.4 0.3
v -0.1 0.4 0.2
v -0.1 0.4 0
v -0.1 0.4 -0.1
v -0.1 0.4 -0.2
v -0.1 0.4 -0.3
v -0.1 0.4 -0.4
v -0.1 0.5 0.3
v -0.1 0.5 0.2
v -0.1 0.5 0.1
v -0.1 0.5 0
v -0.1 0.5 -0.1
v -0.1 0.6 0.2
v -0.1 0.6 0.1
v -0.1 0.6 -0.1
v -0.1 0.6 -0.2
v -0.1 0.6 -0.3
v -0.1 0.6 -0.4
v -0.1 0.6 -0.5
v -0.1 0.7 0.2
v -0.1 0.7 0.1
v -0.1 0.7 0
v -0.1 0.7 -0.1
v -0.1 0.7 -0.2
v -0.1 0.7 -0.3
v -0.1 0.7 -0.4
v -0.1 0.7 -0.5
v -0.1 0.8 0.1
v -0.1 0.8 0
v -0.1 0.8 -0.1
v -0.1 0.8 -0.2
v -0.1 0.8 -0.3
v -0.1 0.8 -0.4
v -0.1 0.8 -0.5
v -0.1 0.9 0
v -0.1 0.9 -0.1
v -0.1 0.9 -0.2
v -0.1 0.9 -0.3
v -0.1 0.9 -0.4
v -0.1 0.9 -0.5
v -0.1 1 0.1
v -0.1 1 0
v -0.1 1 -0.2
v -0.1 1 -0.3
v -0.1 1 -0.5
v 0.1 0 0.2
v 0.1 0 0
v 0.1 0 -0.1
v 0.1 0 -0.3
v 0.1 0.1 0.2
v 0.1 0.1 0.1
v 0.1 0.1 0
v 0.1 0.1 -0.1
v 0.1 0.1 -0.3
v 0.1 0.2 0.2
v 0.1 0.2 0.1
v 0.1 0.3 0.2
v 0.1 0.3 0.1
v 0.1 0.3 0
v 0.2 0 0
v 0.2 0 -0.1
v 0.2 0.1 0
v 0.2 0.1 -0.1
v 0.2 0.2 0
v 0.2 0.2 -0.1
v 0.2 0.7 0
v 0.2 0.7 -0.1
v 0.2 0.8 0.1
v 0.2 0.8 0
v 0.2 0.8 -0.1
v 0.2 0.9 0.1
v 0.2 0.9 0
v 0.2 0.9 -0.1
v 0.3 0.3 0.3
v 0.3 0.3 0.2
v 0.3 0.3 0.1
v 0.3 0.4 0.3
v 0.3 0.4 0.2
v 0.3 0.4 0.1
v 0.3 0.4 0
v 0.3 0.5 0.2
v 0.3 0.5 0.1
v 0.3 0.5 0
v 0.3 0.5 -0.1
v 0.3 0.6 0.1
v 0.3 0.6 -0.1
v 0.3 0.7 0
v 0.3 0.7 -0.1
v 0.3 0.8 0.1
v 0.3 0.8 0
v -0.3 0.4 0.4
v -0.3 0.4 0.3
v -0.3 0.4 0.2
v -0.3 0.4 0.1
v -0.3 0.4 0
v -0.3 0.5 0.5
v -0.3 0.5 0.4
v -0.3 0.5 0.3
v -0.3 0.5 0.2
v -0.3 0.5 0.1
v -0.3 0.5 0
v -0.3 0.5 -0.1
v -0.3 0.6 0.5
v -0.3 0.6 0.3
v -0.3 0.6 0.1
v -0.3 0.6 -0.1
v -0.3 0.7 0.1
v -0.3 0.7 0
v -0.3 0.7 -0.1
v -0.3 0.8 0.1
v -0.3 0.8 0
v -0.2 0 0
v -0.2 0 -0.1
v -0.2 0.1 0
v -0.2 0.1 -0.1
v -0.2 0.2 0
v -0.2 0.2 -0.1
v -0.2 0.7 0
v -0.2 0.7 -0.1
v -0.2 0.8 0.1
v -0.2 0.8 0
v -0.2 0.8 -0.1
v -0.2 0.9 0.1
v -0.2 0.9 0
v -0.2 0.9 -0.1
v -0.1 0 0.2
v -0.1 0 0
v -0.1 0 -0.1
v -0.1 0 -0.3
v -0.1 0.1 0.2
v -0.1 0.1 0.1
v -0.1 0.1 0
v -0.1 0.1 -0.1
v -0.1 0.1 -0.3
v -0.1 0.2 0.2
v -0.1 0.2 0.1
v -0.1 0.3 0.2
v -0.1 0.3 0.1
v -0.1 0.3 0
v 0.1 0.3 -0.2
v 0.1 0.3 -0.3
v 0.1 0.3 -0.4
v 0.1 0.4 0.3
v 0.1 0.4 0.2
v 0.1 0.4 0
v 0.1 0.4 -0.1
v 0.1 0.4 -0.2
v 0.1 0.4 -0.3
v 0.1 0.4 -0.4
v 0.1 0.4 -0.5
v 0.1 0.5 0.3
v 0.1 0.5 0.2
v 0.1 0.5 0.1
v 0.1 0.5 0
v 0.1 0.5 -0.1
v 0.1 0.5 -0.4
v 0.1 0.5 -0.5
v 0.1 0.6 0.2
v 0.1 0.6 0.1
v 0.1 0.6 -0.1
v 0.1 0.6 -0.2
v 0.1 0.6 -0.3
v 0.1 0.6 -0.4
v 0.1 0.6 -0.5
v 0.1 0.7 0.2
v 0.1 0.7 0.1
v 0.1 0.7 0
v 0.1 0.7 -0.1
v 0.1 0.7 -0.2
v 0.1 0.7 -0.3
v 0.1 0.7 -0.4
v 0.1 0.7 -0.5
v 0.1 0.8 0.1
v 0.1 0.8 0
v 0.1 0.8 -0.1
v 0.1 0.8 -0.2
v 0.1 0.8 -0.3
v 0.1 0.8 -0.4
v 0.1 0.8 -0.5
v 0.1 0.9 0
v 0.1 0.9 -0.1
v 0.1 0.9 -0.2
v 0.1 0.9 -0.3
v 0.1 0.9 -0.4
v 0.1 0.9 -0.5
v 0.1 1 0.1
v 0.1 1 0
v 0.1 1 -0.2
v 0.1 1 -0.3
v 0.1 1 -0.5
v 0.2 0 -0.2
v 0.2 0 -0.3
v 0.2 0.1 -0.2
v 0.2 0.1 -0.3
v 0.2 0.2 0.1
v 0.2 0.2 0
v 0.2 0.3 0.1
v 0.2 0.3 0
v 0.2 0.3 -0.2
v 0.2 0.4 0
v 0.2 0.4 -0.1
v 0.2 0.4 -0.2
v 0.2 0.4 -0.3
v 0.2 0.4 -0.4
v 0.2 0.5 0.1
v 0.2 0.5 0
v 0.2 0.5 -0.1
v 0.2 0.5 -0.2
v 0.2 0.5 -0.3
v 0.2 0.6 0
v 0.2 0.6 -0.1
v 0.2 0.6 -0.2
v 0.2 0.6 -0.3
v 0.2 0.6 -0.4
v 0.2 0.7 0.1
v 0.2 0.7 0
v 0.2 0.7 -0.1
v 0.3 0 0.2
v 0.3 0 -0.2
v 0.3 0.1 0.2
v 0.3 0.1 0.1
v 0.3 0.1 0
v 0.3 0.1 -0.1
v 0.3 0.1 -0.2
v 0.3 0.2 0.2
v 0.3 0.2 0.1
v 0.3 0.2 0
v 0.3 0.2 -0.1
v 0.3 0.3 0.2
v 0.3 0.3 0.1
v 0.4 0.3 0.3
v 0.4 0.3 0.2
v 0.4 0.3 0.1
v 0.4 0.3 0
v 0.4 0.4 0.3
v 0.4 0.4 0.2
v 0.4 0.4 0.1
v 0.4 0.4 0
v 0.4 0.5 0.2
v 0.4 0.5 0.1
v 0.4 0.5 0
v 0.4 0.8 0.1
v 0.4 0.8 0
v 0.4 0.8 -0.1
v 0.4 0.9 0.1
v 0.4 0.9 0
v 0.4 0.9 -0.1
v 0.5 0.5 0.1
v 0.5 0.5 -0.1
v 0.5 0.6 0.1
v 0.5 0.6 0
v 0.5 0.6 -0.1
v 0.5 0.7 0.1
v 0.5 0.7 0
v 0.5 0.7 -0.1
v 0.5 0.8 0.1
v 0.5 0.8 0
v 0.5 0.8 -0.1
v -0.4 0.5 0.5
v -0.4 0.6 0.5
v -0.3 0.5 0.5
v -0.3 0.6 0.5
v -0.4 0.4 0.4
v -0.4 0.5 0.4
v -0.3 0.4 0.4
v -0.3 0.5 0.4
v -0.1 0.4 0.3
v -0.1 0.5 0.3
v 0.1 0.4 0.3
v 0.1 0.5 0.3
v 0.3 0.3 0.3
v 0.3 0.4 0.3
v 0.4 0.3 0.3
v 0.4 0.4 0.3
v -0.3 0 0.2
v -0.3 0.1 0.2
v -0.3 0.2 0.2
v -0.3 0.3 0.2
v -0.1 0 0.2
v -0.1 0.1 0.2
v -0.1 0.2 0.2
v -0.1 0.3 0.2
v -0.1 0.5 0.2
v -0.1 0.6 0.2
v -0.1 0.7 0.2
v 0 0.5 0.2
v 0 0.6 0.2
v 0 0.7 0.2
v 0.1 0 0.2
v 0.1 0.1 0.2
v 0.1 0.2 0.2
v 0.1 0.3 0.2
v 0.1 0.5 0.2
v 0.1 0.6 0.2
v 0.1 0.7 0.2
v 0.3 0 0.2
v 0.3 0.1 0.2
v 0.3 0.2 0.2
v 0.3 0.3 0.2
v 0.3 0.4 0.2
v 0.3 0.5 0.2
v 0.4 0.4 0.2
v 0.4 0.5 0.2
v -0.5 0.5 0.1
v -0.5 0.6 0.1
v -0.5 0.7 0.1
v -0.5 0.8 0.1
v -0.4 0.5 0.1
v -0.4 0.6 0.1
v -0.4 0.7 0.1
v -0.4 0.8 0.1
v -0.4 0.9 0.1
v -0.3 0.1 0.1
v -0.3 0.2 0.1
v -0.3 0.3 0.1
v -0.3 0.4 0.1
v -0.3 0.6 0.1
v -0.3 0.7 0.1
v -0.3 0.8 0.1
v -0.3 0.9 0.1
v -0.2 0.5 0.1
v -0.2 0.7 0.1
v -0.2 0.8 0.1
v -0.2 0.9 0.1
v -0.1 0.1 0.1
v -0.1 0.2 0.1
v -0.1 0.3 0.1
v -0.1 0.4 0.1
v -0.1 0.5 0.1
v -0.1 0.6 0.1
v -0.1 0.7 0.1
v -0.1 0.8 0.1
v -0.1 1 0.1
v 0.1 0.1 0.1
v 0.1 0.2 0.1
v 0.1 0.3 0.1
v 0.1 0.4 0.1
v 0.1 0.5 0.1
v 0.1 0.6 0.1
v 0.1 0.7 0.1
v 0.1 0.8 0.1
v 0.1 1 0.1
v 0.2 0.5 0.1
v 0.2 0.7 0.1
v 0.2 0.8 0.1
v 0.2 0.9 0.1
v 0.3 0.1 0.1
v 0.3 0.2 0.1
v 0.3 0.3 0.1
v 0.3 0.4 0.1
v 0.3 0.5 0.1
v 0.3 0.6 0.1
v 0.3 0.8 0.1
v 0.3 0.9 0.1
v 0.4 0.5 0.1
v 0.4 0.6 0.1
v 0.4 0.7 0.1
v 0.4 0.8 0.1
v 0.4 0.9 0.1
v 0.5 0.5 0.1
v 0.5 0.6 0.1
v 0.5 0.7 0.1
v 0.5 0.8 0.1
v -0.3 0.7 0
v -0.3 0.8 0
v -0.2 0.7 0
v -0.2 0.8 0
v -0.1 0.4 0
v -0.1 0.5 0
v -0.1 0.7 0
v -0.1 0.8 0
v 0 0.4 0
v 0 0.5 0
v 0.1 0.4 0
v 0.1 0.5 0
v 0.1 0.7 0
v 0.1 0.8 0
v 0.2 0.7 0
v 0.2 0.8 0
v 0.3 0.7 0
v 0.3 0.8 0
v -0.2 0 -0.1
v -0.2 0.1 -0.1
v -0.2 0.4 -0.1
v -0.2 0.5 -0.1
v -0.1 0 -0.1
v -0.1 0.1 -0.1
v -0.1 0.4 -0.1
v -0.1 0.5 -0.1
v 0.1 0 -0.1
v 0.1 0.1 -0.1
v 0.1 0.4 -0.1
v 0.1 0.5 -0.1
v 0.2 0 -0.1
v 0.2 0.1 -0.1
v 0.2 0.4 -0.1
v 0.2 0.5 -0.1
v -0.1 0.7 -0.3
v -0.1 0.8 -0.3
v -0.1 0.9 -0.3
v 0 0.7 -0.3
v 0 0.8 -0.3
v 0 0.9 -0.3
v 0.1 0.7 -0.3
v 0.1 0.8 -0.3
v 0.1 0.9 -0.3
v -0.1 0.4 0.2
v -0.1 0.5 0.2
v 0 0.5 0.2
v 0.1 0.4 0.2
v 0.1 0.5 0.2
v -0.3 0.2 0.1
v -0.3 0.3 0.1
v -0.2 0.2 0.1
v -0.2 0.3 0.1
v 0.2 0.2 0.1
v 0.2 0.3 0.1
v 0.3 0.2 0.1
v 0.3 0.3 0.1
v -0.4 0.4 0
v -0.4 0.5 0
v -0.3 0.3 0
v -0.3 0.4 0
v -0.3 0.5 0
v -0.2 0 0
v -0.2 0.1 0
v -0.2 0.2 0
v -0.2 0.3 0
v -0.2 0.4 0
v -0.1 0 0
v -0.1 0.1 0
v -0.1 0.3 0
v 0.1 0 0
v 0.1 0.1 0
v 0.1 0.3 0
v 0.2 0 0
v 0.2 0.1 0
v 0.2 0.2 0
v 0.2 0.3 0
v 0.2 0.4 0
v 0.3 0.3 0
v 0.3 0.4 0
v 0.3 0.5 0
v 0.4 0.3 0
v 0.4 0.4 0
v 0.4 0.5 0
v -0.5 0.5 -0.1
v -0.5 0.6 -0.1
v -0.5 0.7 -0.1
v -0.5 0.8 -0.1
v -0.4 0.5 -0.1
v -0.4 0.6 -0.1
v -0.4 0.7 -0.1
v -0.4 0.8 -0.1
v -0.4 0.9 -0.1
v -0.3 0.1 -0.1
v -0.3 0.2 -0.1
v -0.3 0.5 -0.1
v -0.3 0.6 -0.1
v -0.3 0.7 -0.1
v -0.3 0.8 -0.1
v -0.3 0.9 -0.1
v -0.2 0.1 -0.1
v -0.2 0.2 -0.1
v -0.2 0.6 -0.1
v -0.2 0.7 -0.1
v -0.2 0.8 -0.1
v -0.2 0.9 -0.1
v -0.1 0.6 -0.1
v -0.1 0.7 -0.1
v -0.1 0.8 -0.1
v 0.1 0.6 -0.1
v 0.1 0.7 -0.1
v 0.1 0.8 -0.1
v 0.2 0.1 -0.1
v 0.2 0.2 -0.1
v 0.2 0.6 -0.1
v 0.2 0.7 -0.1
v 0.2 0.8 -0.1
v 0.2 0.9 -0.1
v 0.3 0.1 -0.1
v 0.3 0.2 -0.1
v 0.3 0.5 -0.1
v 0.3 0.6 -0.1
v 0.3 0.7 -0.1
v 0.3 0.8 -0.1
v 0.3 0.9 -0.1
v 0.4 0.5 -0.1
v 0.4 0.6 -0.1
v 0.4 0.7 -0.1
v 0.4 0.8 -0.1
v 0.4 0.9 -0.1
v 0.5 0.5 -0.1
v 0.5 0.6 -0.1
v 0.5 0.7 -0.1
v 0.5 0.8 -0.1
v -0.3 0 -0.2
v -0.3 0.1 -0.2
v -0.2 0 -0.2
v -0.2 0.1 -0.2
v -0.2 0.3 -0.2
v -0.2 0.4 -0.2
v -0.1 0.3 -0.2
v -0.1 0.4 -0.2
v -0.1 0.8 -0.2
v -0.1 0.9 -0.2
v 0.1 0.3 -0.2
v 0.1 0.4 -0.2
v 0.1 0.8 -0.2
v 0.1 0.9 -0.2
v 0.2 0 -0.2
v 0.2 0.1 -0.2
v 0.2 0.3 -0.2
v 0.2 0.4 -0.2
v 0.3 0 -0.2
v 0.3 0.1 -0.2
v -0.2 0 -0.3
v -0.2 0.1 -0.3
v -0.1 0 -0.3
v -0.1 0.1 -0.3
v 0.1 0 -0.3
v 0.1 0.1 -0.3
v 0.2 0 -0.3
v 0.2 0.1 -0.3
v -0.1 0.3 -0.4
v -0.1 0.4 -0.4
v 0 0.4 -0.4
v 0.1 0.3 -0.4
v 0.1 0.4 -0.4
v 0.1 0.5 -0.4
v 0.1 0.6 -0.4
v 0.2 0.4 -0.4
v 0.2 0.6 -0.4
v -0.2 0.4 -0.5
v -0.2 0.6 -0.5
v -0.1 0.4 -0.5
v -0.1 0.5 -0.5
v -0.1 0.6 -0.5
v -0.1 0.7 -0.5
v -0.1 0.8 -0.5
v -0.1 0.9 -0.5
v -0.1 1 -0.5
v 0 0.4 -0.5
v 0 0.5 -0.5
v 0 0.6 -0.5
v 0 0.7 -0.5
v 0 0.8 -0.5
v 0 0.9 -0.5
v 0.1 0.4 -0.5
v 0.1 0.5 -0.5
v 0.1 0.6 -0.5
v 0.1 0.7 -0.5
v 0.1 0.8 -0.5
v 0.1 0.9 -0.5
v 0.1 1 -0.5
v -0.3 0 0.2
v -0.1 0 0.2
v 0.1 0 0.2
v 0.3 0 0.2
v -0.2 0 0
v -0.1 0 0
v 0.1 0 0
v 0.2 0 0
v -0.2 0 -0.1
v -0.1 0 -0.1
v 0.1 0 -0.1
v 0.2 0 -0.1
v -0.3 0 -0.2
v -0.2 0 -0.2
v 0.2 0 -0.2
v 0.3 0 -0.2
v -0.2 0 -0.3
v -0.1 0 -0.3
v 0.1 0 -0.3
v 0.2 0 -0.3
v -0.3 0.2 0.2
v -0.1 0.2 0.2
v 0.1 0.2 0.2
v 0.3 0.2 0.2
v -0.3 0.2 0.1
v -0.1 0.2 0.1
v 0.1 0.2 0.1
v 0.3 0.2 0.1
v 0.3 0.3 0.3
v 0.4 0.3 0.3
v 0.3 0.3 0.2
v 0.4 0.3 0.2
v -0.3 0.3 0.1
v -0.2 0.3 0.1
v -0.1 0.3 0.1
v 0.1 0.3 0.1
v 0.2 0.3 0.1
v 0.3 0.3 0.1
v 0.4 0.3 0.1
v -0.3 0.3 0
v -0.2 0.3 0
v -0.1 0.3 0
v 0.1 0.3 0
v 0.2 0.3 0
v 0.3 0.3 0
v 0.4 0.3 0
v -0.1 0.3 -0.1
v 0.1 0.3 -0.1
v -0.2 0.3 -0.2
v -0.1 0.3 -0.2
v 0.1 0.3 -0.2
v 0.2 0.3 -0.2
v -0.1 0.3 -0.3
v 0.1 0.3 -0.3
v -0.1 0.3 -0.4
v 0.1 0.3 -0.4
v -0.4 0.4 0.4
v -0.3 0.4 0.4
v -0.4 0.4 0.3
v -0.3 0.4 0.3
v -0.1 0.4 0.3
v 0.1 0.4 0.3
v -0.4 0.4 0.2
v -0.3 0.4 0.2
v -0.1 0.4 0.2
v 0.1 0.4 0.2
v -0.3 0.4 0.1
v -0.4 0.4 0
v -0.3 0.4 0
v -0.2 0.4 -0.2
v -0.1 0.4 -0.2
v 0.1 0.4 -0.2
v 0.2 0.4 -0.2
v -0.2 0.4 -0.3
v -0.1 0.4 -0.3
v 0.1 0.4 -0.3
v 0.2 0.4 -0.3
v -0.2 0.4 -0.4
v -0.1 0.4 -0.4
v 0 0.4 -0.4
v 0.1 0.4 -0.4
v 0.2 0.4 -0.4
v -0.2 0.4 -0.5
v -0.1 0.4 -0.5
v 0 0.4 -0.5
v 0.1 0.4 -0.5
v -0.4 0.5 0.5
v -0.3 0.5 0.5
v -0.4 0.5 0.4
v -0.3 0.5 0.4
v -0.1 0.5 0.2
v 0 0.5 0.2
v 0.1 0.5 0.2
v -0.5 0.5 0.1
v -0.4 0.5 0.1
v -0.2 0.5 0.1
v -0.1 0.5 0.1
v 0 0.5 0.1
v 0.1 0.5 0.1
v 0.2 0.5 0.1
v 0.4 0.5 0.1
v 0.5 0.5 0.1
v -0.4 0.5 0
v -0.3 0.5 0
v -0.2 0.5 0
v -0.1 0.5 0
v 0 0.5 0
v 0.1 0.5 0
v 0.2 0.5 0
v 0.3 0.5 0
v 0.4 0.5 0
v -0.5 0.5 -0.1
v -0.4 0.5 -0.1
v -0.3 0.5 -0.1
v -0.2 0.5 -0.1
v -0.1 0.5 -0.1
v 0.1 0.5 -0.1
v 0.2 0.5 -0.1
v 0.3 0.5 -0.1
v 0.4 0.5 -0.1
v 0.5 0.5 -0.1
v -0.3 0.7 0
v -0.2 0.7 0
v 0.2 0.7 0
v 0.3 0.7 0
v -0.3 0.7 -0.1
v -0.2 0.7 -0.1
v 0.2 0.7 -0.1
v 0.3 0.7 -0.1
v -0.3 0.8 0.1
v -0.2 0.8 0.1
v -0.1 0.8 0.1
v 0.1 0.8 0.1
v 0.2 0.8 0.1
v 0.3 0.8 0.1
v -0.3 0.8 0
v -0.2 0.8 0
v -0.1 0.8 0
v 0.1 0.8 0
v 0.2 0.8 0
v 0.3 0.8 0
v -0.1 0.8 -0.1
v 0.1 0.8 -0.1
v -0.1 0.8 -0.2
v 0.1 0.8 -0.2
v -0.1 0.9 -0.2
v 0.1 0.9 -0.2
v -0.1 0.9 -0.3
v 0 0.9 -0.3
v 0.1 0.9 -0.3
v -0.3 0.1 0.2
v -0.1 0.1 0.2
v 0.1 0.1 0.2
v 0.3 0.1 0.2
v -0.3 0.1 0.1
v -0.1 0.1 0.1
v 0.1 0.1 0.1
v 0.3 0.1 0.1
v -0.3 0.1 -0.1
v -0.2 0.1 -0.1
v -0.1 0.1 -0.1
v 0.1 0.1 -0.1
v 0.2 0.1 -0.1
v 0.3 0.1 -0.1
v -0.3 0.1 -0.2
v -0.2 0.1 -0.2
v 0.2 0.1 -0.2
v 0.3 0.1 -0.2
v -0.2 0.1 -0.3
v -0.1 0.1 -0.3
v 0.1 0.1 -0.3
v 0.2 0.1 -0.3
v -0.3 0.2 0.1
v -0.2 0.2 0.1
v 0.2 0.2 0.1
v 0.3 0.2 0.1
v -0.3 0.2 0
v -0.2 0.2 0
v 0.2 0.2 0
v 0.3 0.2 0
v -0.3 0.2 -0.1
v -0.2 0.2 -0.1
v 0.2 0.2 -0.1
v 0.3 0.2 -0.1
v -0.3 0.3 0.2
v -0.1 0.3 0.2
v 0.1 0.3 0.2
v 0.3 0.3 0.2
v -0.3 0.3 0.1
v -0.1 0.3 0.1
v 0.1 0.3 0.1
v 0.3 0.3 0.1
v 0.3 0.4 0.3
v 0.4 0.4 0.3
v 0.3 0.4 0.2
v 0.4 0.4 0.2
v -0.3 0.4 0.1
v -0.1 0.4 0.1
v 0.1 0.4 0.1
v 0.3 0.4 0.1
v -0.3 0.4 0
v -0.2 0.4 0
v -0.1 0.4 0
v 0 0.4 0
v 0.1 0.4 0
v 0.2 0.4 0
v 0.3 0.4 0
v -0.2 0.4 -0.1
v -0.1 0.4 -0.1
v 0.1 0.4 -0.1
v 0.2 0.4 -0.1
v -0.1 0.5 0.3
v 0.1 0.5 0.3
v -0.1 0.5 0.2
v 0 0.5 0.2
v 0.1 0.5 0.2
v 0.3 0.5 0.2
v 0.4 0.5 0.2
v 0.3 0.5 0.1
v 0.4 0.5 0.1
v -0.4 0.6 0.5
v -0.3 0.6 0.5
v -0.4 0.6 0.3
v -0.3 0.6 0.3
v -0.4 0.6 0.1
v -0.3 0.6 0.1
v -0.2 0.6 -0.1
v -0.1 0.6 -0.1
v 0.1 0.6 -0.1
v 0.2 0.6 -0.1
v -0.2 0.6 -0.2
v -0.1 0.6 -0.2
v 0.1 0.6 -0.2
v 0.2 0.6 -0.2
v -0.2 0.6 -0.3
v -0.1 0.6 -0.3
v 0.1 0.6 -0.3
v 0.2 0.6 -0.3
v -0.2 0.6 -0.4
v -0.1 0.6 -0.4
v 0.1 0.6 -0.4
v 0.2 0.6 -0.4
v -0.2 0.6 -0.5
v -0.1 0.6 -0.5
v -0.1 0.7 0.2
v 0 0.7 0.2
v 0.1 0.7 0.2
v -0.2 0.7 0.1
v -0.1 0.7 0.1
v 0 0.7 0.1
v 0.1 0.7 0.1
v 0.2 0.7 0.1
v -0.2 0.7 0
v -0.1 0.7 0
v 0.1 0.7 0
v 0.2 0.7 0
v -0.2 0.7 -0.1
v -0.1 0.7 -0.1
v 0.1 0.7 -0.1
v 0.2 0.7 -0.1
v -0.1 0.7 -0.2
v 0.1 0.7 -0.2
v -0.1 0.7 -0.3
v 0 0.7 -0.3
v 0.1 0.7 -0.3
v -0.5 0.8 0.1
v -0.4 0.8 0.1
v 0.4 0.8 0.1
v 0.5 0.8 0.1
v -0.5 0.8 0
v -0.4 0.8 0
v 0.4 0.8 0
v 0.5 0.8 0
v -0.5 0.8 -0.1
v -0.4 0.8 -0.1
v 0.4 0.8 -0.1
v 0.5 0.8 -0.1
v -0.4 0.9 0.1
v -0.3 0.9 0.1
v -0.2 0.9 0.1
v 0.2 0.9 0.1
v 0.3 0.9 0.1
v 0.4 0.9 0.1
v -0.4 0.9 0
v -0.3 0.9 0
v -0.2 0.9 0
v 0.2 0.9 0
v 0.3 0.9 0
v 0.4 0.9 0
v -0.4 0.9 -0.1
v -0.3 0.9 -0.1
v -0.2 0.9 -0.1
v 0.2 0.9 -0.1
v 0.3 0.9 -0.1
v 0.4 0.9 -0.1
v -0.1 1 0.1
v 0.1 1 0.1
v -0.1 1 0
v 0.1 1 0
v -0.1 1 -0.2
v 0.1 1 -0.2
v -0.1 1 -0.3
v 0.1 1 -0.3
v -0.1 1 -0.5
v 0.1 1 -0.5

# faces
f 3/3/1 2/3/1 1/3/1
f 4/3/1 2/3/1 3/3/1
f 5/3/1 2/3/1 4/3/1
f 6/1/1 4/1/1 3/1/1
f 7/2/1 5/2/1 4/2/1
f 7/1/1 4/1/1 6/1/1
f 8/2/1 5/2/1 7/2/1
f 9/2/1 7/2/1 6/2/1
f 10/1/1 8/1/1 7/1/1
f 10/2/1 7/2/1 9/2/1
f 11/1/1 8/1/1 10/1/1
f 17/14/1 13/14/1 12/14/1
f 18/19/1 14/19/1 13/19/1
f 18/14/1 13/14/1 17/14/1
f 19/6/1 15/6/1 14/6/1
f 19/19/1 14/19/1 18/19/1
f 20/6/1 15/6/1 19/6/1
f 21/6/1 15/6/1 20/6/1
f 22/20/1 18/20/1 17/20/1
f 22/20/1 17/20/1 16/20/1
f 23/15/1 20/15/1 19/15/1
f 23/20/1 18/20/1 22/20/1
f 23/15/1 19/15/1 18/15/1
f 24/15/1 20/15/1 23/15/1
f 28/1/1 26/1/1 25/1/1
f 29/2/1 27/2/1 26/2/1
f 29/1/1 26/1/1 28/1/1
f 30/2/1 27/2/1 29/2/1
f 33/4/1 32/4/1 31/4/1
f 34/4/1 32/4/1 33/4/1
f 35/4/1 32/4/1 34/4/1
f 36/4/1 32/4/1 35/4/1
f 37/4/1 32/4/1 36/4/1
f 39/13/1 35/13/1 34/13/1
f 40/18/1 36/18/1 35/18/1
f 40/13/1 35/13/1 39/13/1
f 41/18/1 36/18/1 40/18/1
f 42/13/1 39/13/1 38/13/1
f 43/13/1 39/13/1 42/13/1
f 45/16/1 44/16/1 43/16/1
f 46/16/1 44/16/1 45/16/1
f 49/4/1 48/4/1 47/4/1
f 50/4/1 48/4/1 49/4/1
f 53/13/1 52/13/1 51/13/1
f 54/13/1 52/13/1 53/13/1
f 56/12/1 55/12/1 54/12/1
f 57/12/1 55/12/1 56/12/1
f 58/12/1 55/12/1 57/12/1
f 64/17/1 58/17/1 57/17/1
f 65/18/1 59/18/1 58/18/1
f 65/17/1 58/17/1 64/17/1
f 66/20/1 60/20/1 59/20/1
f 66/18/1 59/18/1 65/18/1
f 67/1/1 64/1/1 63/1/1
f 67/17/1 63/17/1 62/17/1
f 67/1/1 65/1/1 64/1/1
f 68/1/1 65/1/1 67/1/1
f 69/2/1 66/2/1 65/2/1
f 69/1/1 65/1/1 68/1/1
f 70/20/1 60/20/1 66/20/1
f 70/2/1 66/2/1 69/2/1
f 71/15/1 61/15/1 60/15/1
f 71/20/1 60/20/1 70/20/1
f 72/15/1 61/15/1 71/15/1
f 73/17/1 67/17/1 62/17/1
f 74/5/1 68/5/1 67/5/1
f 74/17/1 67/17/1 73/17/1
f 75/5/1 68/5/1 74/5/1
f 83/12/1 77/12/1 76/12/1
f 84/20/1 78/20/1 77/20/1
f 84/12/1 77/12/1 83/12/1
f 85/20/1 78/20/1 84/20/1
f 86/5/1 80/5/1 79/5/1
f 87/5/1 80/5/1 86/5/1
f 89/18/1 82/18/1 81/18/1
f 90/18/1 82/18/1 89/18/1
f 91/1/1 88/1/1 87/1/1
f 92/1/1 88/1/1 91/1/1
f 98/2/1 92/2/1 91/2/1
f 99/2/1 92/2/1 98/2/1
f 101/1/1 94/1/1 93/1/1
f 102/19/1 95/19/1 94/19/1
f 102/1/1 94/1/1 101/1/1
f 103/18/1 96/18/1 95/18/1
f 103/19/1 95/19/1 102/19/1
f 104/17/1 97/17/1 96/17/1
f 104/18/1 96/18/1 103/18/1
f 105/17/1 97/17/1 104/17/1
f 107/17/1 101/17/1 100/17/1
f 108/17/1 101/17/1 107/17/1
f 110/17/1 104/17/1 103/17/1
f 111/18/1 105/18/1 104/18/1
f 111/17/1 104/17/1 110/17/1
f 112/18/1 105/18/1 111/18/1
f 113/7/1 107/7/1 106/7/1
f 113/10/1 108/10/1 107/10/1
f 114/8/1 109/8/1 108/8/1
f 114/10/1 108/10/1 113/10/1
f 115/8/1 109/8/1 114/8/1
f 116/14/1 111/14/1 110/14/1
f 117/17/1 112/17/1 111/17/1
f 117/14/1 111/14/1 116/14/1
f 118/17/1 112/17/1 117/17/1
f 119/7/1 113/7/1 106/7/1
f 120/8/1 115/8/1 114/8/1
f 120/7/1 113/7/1 119/7/1
f 120/8/1 114/8/1 113/8/1
f 121/2/1 116/2/1 115/2/1
f 121/8/1 115/8/1 120/8/1
f 122/19/1 118/19/1 117/19/1
f 122/2/1 116/2/1 121/2/1
f 122/19/1 117/19/1 116/19/1
f 123/19/1 118/19/1 122/19/1
f 128/4/1 125/4/1 124/4/1
f 129/4/1 125/4/1 128/4/1
f 130/4/1 125/4/1 129/4/1
f 131/4/1 127/4/1 126/4/1
f 132/4/1 127/4/1 131/4/1
f 134/13/1 130/13/1 129/13/1
f 135/13/1 134/13/1 133/13/1
f 136/13/1 130/13/1 134/13/1
f 136/13/1 134/13/1 135/13/1
f 137/13/1 130/13/1 136/13/1
f 140/4/1 139/4/1 138/4/1
f 141/4/1 139/4/1 140/4/1
f 142/18/1 141/18/1 140/18/1
f 143/18/1 141/18/1 142/18/1
f 147/5/1 145/5/1 144/5/1
f 148/5/1 145/5/1 147/5/1
f 149/2/1 147/2/1 146/2/1
f 150/1/1 148/1/1 147/1/1
f 150/2/1 147/2/1 149/2/1
f 151/1/1 148/1/1 150/1/1
f 155/6/1 153/6/1 152/6/1
f 156/19/1 154/19/1 153/19/1
f 156/6/1 153/6/1 155/6/1
f 157/19/1 154/19/1 156/19/1
f 159/19/1 157/19/1 156/19/1
f 160/6/1 158/6/1 157/6/1
f 160/19/1 157/19/1 159/19/1
f 161/6/1 158/6/1 160/6/1
f 163/6/1 162/6/1 161/6/1
f 163/6/1 161/6/1 160/6/1
f 164/6/1 162/6/1 163/6/1
f 165/19/1 164/19/1 163/19/1
f 166/19/1 164/19/1 165/19/1
f 167/19/1 165/19/1 163/19/1
f 168/19/1 165/19/1 167/19/1
f 169/14/2 170/14/2 175/14/2
f 170/19/2 171/19/2 176/19/2
f 175/14/2 170/14/2 176/14/2
f 172/6/2 173/6/2 177/6/2
f 176/19/2 171/19/2 177/19/2
f 171/6/2 172/6/2 177/6/2
f 177/6/2 173/6/2 178/6/2
f 178/6/2 173/6/2 179/6/2
f 175/20/2 176/20/2 181/20/2
f 174/20/2 175/20/2 181/20/2
f 176/15/2 177/15/2 182/15/2
f 181/20/2 176/20/2 182/20/2
f 177/15/2 178/15/2 182/15/2
f 179/6/2 180/6/2 183/6/2
f 182/15/2 178/15/2 183/15/2
f 178/6/2 179/6/2 183/6/2
f 183/6/2 180/6/2 184/6/2
f 183/19/2 184/19/2 185/19/2
f 185/19/2 184/19/2 186/19/2
f 186/19/2 184/19/2 187/19/2
f 185/14/2 186/14/2 188/14/2
f 188/14/2 186/14/2 189/14/2
f 190/4/2 191/4/2 192/4/2
f 192/4/2 191/4/2 193/4/2
f 192/18/2 193/18/2 194/18/2
f 194/18/2 193/18/2 195/18/2
f 196/5/2 197/5/2 199/5/2
f 199/5/2 197/5/2 200/5/2
f 198/2/2 199/2/2 201/2/2
f 199/1/2 200/1/2 202/1/2
f 201/2/2 199/2/2 202/2/2
f 202/1/2 200/1/2 203/1/2
f 204/4/2 205/4/2 208/4/2
f 208/4/2 205/4/2 209/4/2
f 209/4/2 205/4/2 210/4/2
f 206/4/2 207/4/2 211/4/2
f 211/4/2 207/4/2 212/4/2
f 209/13/2 210/13/2 214/13/2
f 213/13/2 214/13/2 215/13/2
f 214/13/2 210/13/2 216/13/2
f 215/13/2 214/13/2 216/13/2
f 216/13/2 210/13/2 217/13/2
f 218/12/2 219/12/2 225/12/2
f 219/20/2 220/20/2 226/20/2
f 225/12/2 219/12/2 226/12/2
f 226/20/2 220/20/2 227/20/2
f 221/5/2 222/5/2 229/5/2
f 229/5/2 222/5/2 230/5/2
f 223/17/2 224/17/2 232/17/2
f 232/17/2 224/17/2 233/17/2
f 227/19/2 228/19/2 234/19/2
f 234/19/2 228/19/2 235/19/2
f 230/2/2 231/2/2 236/2/2
f 236/2/2 231/2/2 237/2/2
f 234/20/2 235/20/2 241/20/2
f 241/20/2 235/20/2 242/20/2
f 236/1/2 237/1/2 243/1/2
f 243/1/2 237/1/2 244/1/2
f 238/1/2 239/1/2 246/1/2
f 239/19/2 240/19/2 247/19/2
f 246/1/2 239/1/2 247/1/2
f 240/17/2 241/17/2 248/17/2
f 247/19/2 240/19/2 248/19/2
f 241/18/2 242/18/2 249/18/2
f 248/17/2 241/17/2 249/17/2
f 249/18/2 242/18/2 250/18/2
f 245/17/2 246/17/2 252/17/2
f 252/17/2 246/17/2 253/17/2
f 248/18/2 249/18/2 255/18/2
f 249/17/2 250/17/2 256/17/2
f 255/18/2 249/18/2 256/18/2
f 256/17/2 250/17/2 257/17/2
f 251/7/2 252/7/2 258/7/2
f 252/10/2 253/10/2 258/10/2
f 253/8/2 254/8/2 259/8/2
f 258/10/2 253/10/2 259/10/2
f 259/8/2 254/8/2 260/8/2
f 255/17/2 256/17/2 261/17/2
f 256/14/2 257/14/2 262/14/2
f 261/17/2 256/17/2 262/17/2
f 262/14/2 257/14/2 263/14/2
f 251/7/2 258/7/2 264/7/2
f 259/8/2 260/8/2 265/8/2
f 264/7/2 258/7/2 265/7/2
f 258/8/2 259/8/2 265/8/2
f 260/2/2 261/2/2 266/2/2
f 265/8/2 260/8/2 266/8/2
f 262/19/2 263/19/2 267/19/2
f 266/2/2 261/2/2 267/2/2
f 261/19/2 262/19/2 267/19/2
f 267/19/2 263/19/2 268/19/2
f 269/4/2 270/4/2 271/4/2
f 271/4/2 270/4/2 272/4/2
f 273/13/2 274/13/2 275/13/2
f 275/13/2 274/13/2 276/13/2
f 276/12/2 277/12/2 278/12/2
f 278/12/2 277/12/2 279/12/2
f 279/12/2 277/12/2 280/12/2
f 279/18/2 280/18/2 285/18/2
f 280/17/2 281/17/2 286/17/2
f 285/18/2 280/18/2 286/18/2
f 281/20/2 282/20/2 287/20/2
f 286/17/2 281/17/2 287/17/2
f 284/1/2 285/1/2 288/1/2
f 285/1/2 286/1/2 288/1/2
f 283/17/2 284/17/2 288/17/2
f 288/1/2 286/1/2 289/1/2
f 286/2/2 287/2/2 290/2/2
f 289/1/2 286/1/2 290/1/2
f 287/20/2 282/20/2 291/20/2
f 290/2/2 287/2/2 291/2/2
f 291/20/2 282/20/2 292/20/2
f 283/17/2 288/17/2 293/17/2
f 288/5/2 289/5/2 294/5/2
f 293/17/2 288/17/2 294/17/2
f 294/5/2 289/5/2 295/5/2
f 296/4/2 297/4/2 298/4/2
f 298/4/2 297/4/2 299/4/2
f 299/4/2 297/4/2 300/4/2
f 300/4/2 297/4/2 301/4/2
f 301/4/2 297/4/2 302/4/2
f 299/13/2 300/13/2 304/13/2
f 300/18/2 301/18/2 305/18/2
f 304/13/2 300/13/2 305/13/2
f 305/18/2 301/18/2 306/18/2
f 303/13/2 304/13/2 307/13/2
f 307/13/2 304/13/2 308/13/2
f 309/6/2 310/6/2 313/6/2
f 310/19/2 311/19/2 314/19/2
f 313/6/2 310/6/2 314/6/2
f 311/14/2 312/14/2 315/14/2
f 314/19/2 311/19/2 315/19/2
f 315/14/2 312/14/2 316/14/2
f 314/19/2 315/19/2 317/19/2
f 315/6/2 316/6/2 318/6/2
f 317/19/2 315/19/2 318/19/2
f 318/6/2 316/6/2 319/6/2
f 320/1/2 321/1/2 323/1/2
f 321/2/2 322/2/2 324/2/2
f 323/1/2 321/1/2 324/1/2
f 324/2/2 322/2/2 325/2/2
f 326/3/2 327/3/2 328/3/2
f 328/3/2 327/3/2 329/3/2
f 329/3/2 327/3/2 330/3/2
f 328/1/2 329/1/2 331/1/2
f 329/2/2 330/2/2 332/2/2
f 331/1/2 329/1/2 332/1/2
f 332/2/2 330/2/2 333/2/2
f 331/2/2 332/2/2 334/2/2
f 332/1/2 333/1/2 335/1/2
f 334/2/2 332/2/2 335/2/2
f 335/1/2 333/1/2 336/1/2
f 339/20/3 338/20/3 337/20/3
f 340/20/3 338/20/3 339/20/3
f 343/14/3 342/14/3 341/14/3
f 344/14/3 342/14/3 343/14/3
f 347/5/3 346/5/3 345/5/3
f 348/5/3 346/5/3 347/5/3
f 351/6/3 350/6/3 349/6/3
f 352/6/3 350/6/3 351/6/3
f 357/4/3 354/4/3 353/4/3
f 358/4/3 354/4/3 357/4/3
f 359/13/3 356/13/3 355/13/3
f 360/13/3 356/13/3 359/13/3
f 364/1/3 362/1/3 361/1/3
f 365/2/3 363/2/3 362/2/3
f 365/1/3 362/1/3 364/1/3
f 366/2/3 363/2/3 365/2/3
f 371/2/3 365/2/3 364/2/3
f 372/1/3 366/1/3 365/1/3
f 372/2/3 365/2/3 371/2/3
f 373/1/3 366/1/3 372/1/3
f 374/4/3 368/4/3 367/4/3
f 375/4/3 368/4/3 374/4/3
f 376/13/3 370/13/3 369/13/3
f 377/13/3 370/13/3 376/13/3
f 380/19/3 379/19/3 378/19/3
f 381/19/3 379/19/3 380/19/3
f 386/3/3 383/3/3 382/3/3
f 387/1/3 384/1/3 383/1/3
f 387/3/3 383/3/3 386/3/3
f 388/2/3 385/2/3 384/2/3
f 388/1/3 384/1/3 387/1/3
f 389/2/3 385/2/3 388/2/3
f 395/19/3 388/19/3 387/19/3
f 396/14/3 389/14/3 388/14/3
f 396/19/3 388/19/3 395/19/3
f 397/1/3 390/1/3 389/1/3
f 397/14/3 389/14/3 396/14/3
f 398/1/3 390/1/3 397/1/3
f 401/2/3 398/2/3 397/2/3
f 402/2/3 398/2/3 401/2/3
f 403/13/3 392/13/3 391/13/3
f 404/13/3 392/13/3 403/13/3
f 405/16/3 394/16/3 393/16/3
f 406/16/3 394/16/3 405/16/3
f 407/17/3 400/17/3 399/17/3
f 408/17/3 400/17/3 407/17/3
f 409/17/3 400/17/3 408/17/3
f 414/11/3 406/11/3 405/11/3
f 415/11/3 406/11/3 414/11/3
f 419/7/3 411/7/3 410/7/3
f 420/7/3 411/7/3 419/7/3
f 421/17/3 418/17/3 417/17/3
f 421/17/3 417/17/3 416/17/3
f 422/17/3 418/17/3 421/17/3
f 425/13/3 413/13/3 412/13/3
f 426/13/3 413/13/3 425/13/3
f 427/16/3 415/16/3 414/16/3
f 428/16/3 415/16/3 427/16/3
f 431/2/3 424/2/3 423/2/3
f 432/2/3 424/2/3 431/2/3
f 433/6/3 430/6/3 429/6/3
f 434/19/3 431/19/3 430/19/3
f 434/6/3 430/6/3 433/6/3
f 435/19/3 431/19/3 434/19/3
f 436/1/3 432/1/3 431/1/3
f 436/19/3 431/19/3 435/19/3
f 437/1/3 432/1/3 436/1/3
f 438/3/3 434/3/3 433/3/3
f 439/1/3 435/1/3 434/1/3
f 439/3/3 434/3/3 438/3/3
f 440/2/3 436/2/3 435/2/3
f 440/1/3 435/1/3 439/1/3
f 441/2/3 436/2/3 440/2/3
f 444/5/3 443/5/3 442/5/3
f 445/5/3 443/5/3 444/5/3
f 450/18/3 447/18/3 446/18/3
f 451/18/3 447/18/3 450/18/3
f 452/17/3 451/17/3 450/17/3
f 453/17/3 451/17/3 452/17/3
f 454/17/3 449/17/3 448/17/3
f 455/17/3 449/17/3 454/17/3
f 458/5/3 457/5/3 456/5/3
f 459/5/3 457/5/3 458/5/3
f 464/4/3 461/4/3 460/4/3
f 465/4/3 461/4/3 464/4/3
f 466/17/3 463/17/3 462/17/3
f 467/17/3 463/17/3 466/17/3
f 472/4/3 469/4/3 468/4/3
f 473/4/3 469/4/3 472/4/3
f 474/18/3 471/18/3 470/18/3
f 475/18/3 471/18/3 474/18/3
f 479/17/3 477/17/3 476/17/3
f 480/14/3 478/14/3 477/14/3
f 480/17/3 477/17/3 479/17/3
f 481/14/3 478/14/3 480/14/3
f 482/18/3 480/18/3 479/18/3
f 483/17/3 481/17/3 480/17/3
f 483/18/3 480/18/3 482/18/3
f 484/17/3 481/17/3 483/17/3
f 485/5/4 486/5/4 487/5/4
f 485/5/4 487/5/4 488/5/4
f 488/5/4 487/5/4 489/5/4
f 490/13/4 491/13/4 492/13/4
f 492/13/4 491/13/4 493/13/4
f 494/13/4 495/13/4 496/13/4
f 496/13/4 495/13/4 497/13/4
f 498/6/4 499/6/4 501/6/4
f 501/6/4 499/6/4 502/6/4
f 500/16/4 501/16/4 506/16/4
f 506/16/4 501/16/4 507/16/4
f 503/4/4 504/4/4 508/4/4
f 504/13/4 505/13/4 509/13/4
f 508/4/4 504/4/4 509/4/4
f 505/13/4 506/13/4 509/13/4
f 509/13/4 506/13/4 510/13/4
f 511/4/4 512/4/4 514/4/4
f 512/13/4 513/13/4 515/13/4
f 514/4/4 512/4/4 515/4/4
f 515/13/4 513/13/4 516/13/4
f 516/13/4 513/13/4 517/13/4
f 517/16/4 518/16/4 519/16/4
f 519/16/4 518/16/4 520/16/4
f 519/14/4 520/14/4 522/14/4
f 520/6/4 521/6/4 523/6/4
f 522/14/4 520/14/4 523/14/4
f 523/6/4 521/6/4 524/6/4
f 525/3/4 526/3/4 529/3/4
f 526/2/4 527/2/4 530/2/4
f 529/3/4 526/3/4 530/3/4
f 527/1/4 528/1/4 531/1/4
f 530/2/4 527/2/4 531/2/4
f 531/1/4 528/1/4 532/1/4
f 529/6/4 530/6/4 536/6/4
f 530/19/4 531/19/4 537/19/4
f 536/6/4 530/6/4 537/6/4
f 531/19/4 532/19/4 537/19/4
f 537/19/4 532/19/4 538/19/4
f 532/2/4 533/2/4 539/2/4
f 538/19/4 532/19/4 539/19/4
f 539/2/4 533/2/4 540/2/4
f 534/18/4 535/18/4 541/18/4
f 541/18/4 535/18/4 542/18/4
f 538/5/4 539/5/4 544/5/4
f 539/1/4 540/1/4 545/1/4
f 544/5/4 539/5/4 545/5/4
f 545/1/4 540/1/4 546/1/4
f 543/5/4 544/5/4 547/5/4
f 547/5/4 544/5/4 548/5/4
f 548/17/4 549/17/4 551/17/4
f 551/17/4 549/17/4 552/17/4
f 550/5/4 551/5/4 555/5/4
f 555/5/4 551/5/4 556/5/4
f 553/18/4 554/18/4 559/18/4
f 559/18/4 554/18/4 560/18/4
f 556/5/4 557/5/4 563/5/4
f 557/1/4 558/1/4 564/1/4
f 563/5/4 557/5/4 564/5/4
f 564/1/4 558/1/4 565/1/4
f 561/6/4 562/6/4 566/6/4
f 562/19/4 563/19/4 567/19/4
f 566/6/4 562/6/4 567/6/4
f 563/19/4 564/19/4 567/19/4
f 567/19/4 564/19/4 568/19/4
f 564/2/4 565/2/4 569/2/4
f 568/19/4 564/19/4 569/19/4
f 569/2/4 565/2/4 570/2/4
f 566/3/4 567/3/4 571/3/4
f 567/2/4 568/2/4 572/2/4
f 571/3/4 567/3/4 572/3/4
f 568/1/4 569/1/4 573/1/4
f 572/2/4 568/2/4 573/2/4
f 573/1/4 569/1/4 574/1/4
f 575/4/4 576/4/4 577/4/4
f 577/4/4 576/4/4 578/4/4
f 579/12/4 580/12/4 581/12/4
f 581/12/4 580/12/4 582/12/4
f 583/8/4 584/8/4 587/8/4
f 587/8/4 584/8/4 588/8/4
f 585/12/4 586/12/4 591/12/4
f 591/12/4 586/12/4 592/12/4
f 589/4/4 590/4/4 593/4/4
f 593/4/4 590/4/4 594/4/4
f 595/4/4 596/4/4 597/4/4
f 597/4/4 596/4/4 598/4/4
f 599/4/4 600/4/4 601/4/4
f 601/4/4 600/4/4 602/4/4
f 603/20/4 604/20/4 605/20/4
f 603/20/4 605/20/4 606/20/4
f 606/20/4 605/20/4 607/20/4
f 608/20/4 609/20/4 610/20/4
f 607/20/4 608/20/4 610/20/4
f 610/20/4 609/20/4 611/20/4
f 612/15/4 613/15/4 614/15/4
f 614/15/4 613/15/4 615/15/4
f 615/15/4 613/15/4 616/15/4
f 614/20/4 615/20/4 621/20/4
f 615/19/4 616/19/4 622/19/4
f 621/20/4 615/20/4 622/20/4
f 616/17/4 617/17/4 623/17/4
f 622/19/4 616/19/4 623/19/4
f 617/18/4 618/18/4 624/18/4
f 623/17/4 617/17/4 624/17/4
f 618/17/4 619/17/4 625/17/4
f 624/18/4 618/18/4 625/18/4
f 619/19/4 620/19/4 626/19/4
f 625/17/4 619/17/4 626/17/4
f 621/19/4 622/19/4 627/19/4
f 622/20/4 623/20/4 628/20/4
f 627/19/4 622/19/4 628/19/4
f 623/18/4 624/18/4 629/18/4
f 628/20/4 623/20/4 629/20/4
f 624/17/4 625/17/4 630/17/4
f 629/18/4 624/18/4 630/18/4
f 625/14/4 626/14/4 631/14/4
f 630/17/4 625/17/4 631/17/4
f 626/19/4 620/19/4 632/19/4
f 631/14/4 626/14/4 632/14/4
f 632/19/4 620/19/4 633/19/4
f 638/4/5 635/4/5 634/4/5
f 639/4/5 635/4/5 638/4/5
f 640/4/5 637/4/5 636/4/5
f 641/4/5 637/4/5 640/4/5
f 642/4/5 638/4/5 634/4/5
f 645/4/5 637/4/5 641/4/5
f 646/4/5 643/4/5 642/4/5
f 646/4/5 642/4/5 634/4/5
f 647/4/5 643/4/5 646/4/5
f 648/4/5 645/4/5 644/4/5
f 648/4/5 637/4/5 645/4/5
f 649/4/5 637/4/5 648/4/5
f 650/4/5 643/4/5 647/4/5
f 651/4/5 643/4/5 650/4/5
f 652/4/5 648/4/5 644/4/5
f 653/4/5 648/4/5 652/4/5
f 658/13/5 655/13/5 654/13/5
f 659/13/5 655/13/5 658/13/5
f 660/13/5 657/13/5 656/13/5
f 661/13/5 657/13/5 660/13/5
f 664/6/5 663/6/5 662/6/5
f 665/6/5 663/6/5 664/6/5
f 671/19/5 665/19/5 664/19/5
f 672/19/5 665/19/5 671/19/5
f 673/16/5 667/16/5 666/16/5
f 674/16/5 667/16/5 673/16/5
f 675/11/5 669/11/5 668/11/5
f 676/11/5 669/11/5 675/11/5
f 677/16/5 671/16/5 670/16/5
f 678/14/5 672/14/5 671/14/5
f 678/16/5 671/16/5 677/16/5
f 679/14/5 672/14/5 678/14/5
f 680/11/5 676/11/5 675/11/5
f 680/12/5 675/12/5 674/12/5
f 681/12/5 677/12/5 676/12/5
f 681/11/5 676/11/5 680/11/5
f 682/12/5 680/12/5 674/12/5
f 683/9/5 681/9/5 680/9/5
f 683/12/5 680/12/5 682/12/5
f 684/12/5 677/12/5 681/12/5
f 684/9/5 681/9/5 683/9/5
f 685/12/5 677/12/5 684/12/5
f 686/12/5 684/12/5 683/12/5
f 687/12/5 684/12/5 686/12/5
f 688/20/5 687/20/5 686/20/5
f 689/20/5 687/20/5 688/20/5
f 692/14/5 691/14/5 690/14/5
f 693/14/5 691/14/5 692/14/5
f 696/19/5 693/19/5 692/19/5
f 697/19/5 693/19/5 696/19/5
f 698/5/5 695/5/5 694/5/5
f 699/5/5 695/5/5 698/5/5
f 700/6/5 697/6/5 696/6/5
f 701/6/5 700/6/5 696/6/5
f 702/6/5 700/6/5 701/6/5
f 707/18/5 704/18/5 703/18/5
f 708/18/5 704/18/5 707/18/5
f 709/17/5 706/17/5 705/17/5
f 710/17/5 706/17/5 709/17/5
f 711/20/5 708/20/5 707/20/5
f 712/20/5 708/20/5 711/20/5
f 714/20/5 710/20/5 709/20/5
f 715/20/5 710/20/5 714/20/5
f 716/15/5 712/15/5 711/15/5
f 717/20/5 713/20/5 712/20/5
f 717/15/5 712/15/5 716/15/5
f 718/19/5 714/19/5 713/19/5
f 718/20/5 713/20/5 717/20/5
f 719/19/5 714/19/5 718/19/5
f 722/20/5 721/20/5 720/20/5
f 723/20/5 721/20/5 722/20/5
f 730/1/5 725/1/5 724/1/5
f 731/2/5 726/2/5 725/2/5
f 731/1/5 725/1/5 730/1/5
f 732/2/5 726/2/5 731/2/5
f 736/3/5 728/3/5 727/3/5
f 738/17/5 730/17/5 729/17/5
f 739/2/5 731/2/5 730/2/5
f 739/17/5 730/17/5 738/17/5
f 739/2/5 732/2/5 731/2/5
f 740/2/5 732/2/5 739/2/5
f 741/17/5 733/17/5 732/17/5
f 741/2/5 732/2/5 740/2/5
f 742/17/5 733/17/5 741/17/5
f 744/3/5 735/3/5 734/3/5
f 745/3/5 736/3/5 727/3/5
f 746/6/5 737/6/5 736/6/5
f 746/3/5 736/3/5 745/3/5
f 747/6/5 737/6/5 746/6/5
f 748/1/5 739/1/5 738/1/5
f 749/1/5 739/1/5 748/1/5
f 750/1/5 742/1/5 741/1/5
f 751/1/5 742/1/5 750/1/5
f 752/6/5 744/6/5 743/6/5
f 753/3/5 735/3/5 744/3/5
f 753/6/5 744/6/5 752/6/5
f 754/3/5 735/3/5 753/3/5
f 759/5/5 756/5/5 755/5/5
f 760/5/5 756/5/5 759/5/5
f 761/5/5 758/5/5 757/5/5
f 762/5/5 758/5/5 761/5/5
f 769/2/5 764/2/5 763/2/5
f 770/2/5 764/2/5 769/2/5
f 771/7/5 766/7/5 765/7/5
f 772/7/5 766/7/5 771/7/5
f 773/2/5 768/2/5 767/2/5
f 774/2/5 768/2/5 773/2/5
f 777/8/5 776/8/5 775/8/5
f 778/8/5 776/8/5 777/8/5
f 781/2/5 780/2/5 779/2/5
f 782/2/5 780/2/5 781/2/5
f 783/2/5 780/2/5 782/2/5
f 784/4/6 785/4/6 788/4/6
f 788/4/6 785/4/6 789/4/6
f 786/4/6 787/4/6 790/4/6
f 790/4/6 787/4/6 791/4/6
f 792/4/6 793/4/6 798/4/6
f 793/4/6 794/4/6 798/4/6
f 798/4/6 794/4/6 799/4/6
f 796/4/6 797/4/6 800/4/6
f 795/4/6 796/4/6 800/4/6
f 800/4/6 797/4/6 801/4/6
f 799/4/6 794/4/6 802/4/6
f 802/4/6 794/4/6 803/4/6
f 795/4/6 800/4/6 804/4/6
f 804/4/6 800/4/6 805/4/6
f 806/13/6 807/13/6 810/13/6
f 810/13/6 807/13/6 811/13/6
f 808/13/6 809/13/6 812/13/6
f 812/13/6 809/13/6 813/13/6
f 810/18/6 811/18/6 814/18/6
f 814/18/6 811/18/6 815/18/6
f 812/18/6 813/18/6 816/18/6
f 816/18/6 813/18/6 817/18/6
f 818/13/6 819/13/6 822/13/6
f 822/13/6 819/13/6 823/13/6
f 820/13/6 821/13/6 824/13/6
f 824/13/6 821/13/6 825/13/6
f 826/6/6 827/6/6 828/6/6
f 828/6/6 827/6/6 829/6/6
f 830/16/6 831/16/6 834/16/6
f 834/16/6 831/16/6 835/16/6
f 831/11/6 832/11/6 836/11/6
f 835/16/6 831/16/6 836/16/6
f 836/11/6 832/11/6 837/11/6
f 832/16/6 833/16/6 838/16/6
f 837/11/6 832/11/6 838/11/6
f 838/16/6 833/16/6 839/16/6
f 839/16/6 833/16/6 840/16/6
f 835/12/6 836/12/6 841/12/6
f 841/12/6 836/12/6 842/12/6
f 838/12/6 839/12/6 843/12/6
f 843/12/6 839/12/6 844/12/6
f 845/5/6 846/5/6 847/5/6
f 847/5/6 846/5/6 848/5/6
f 848/5/6 846/5/6 849/5/6
f 850/19/6 851/19/6 852/19/6
f 852/19/6 851/19/6 853/19/6
f 854/20/6 855/20/6 856/20/6
f 856/20/6 855/20/6 857/20/6
f 856/15/6 857/15/6 858/15/6
f 858/15/6 857/15/6 859/15/6
f 860/1/6 861/1/6 864/1/6
f 864/1/6 861/1/6 865/1/6
f 862/1/6 863/1/6 866/1/6
f 866/1/6 863/1/6 867/1/6
f 864/2/6 865/2/6 868/2/6
f 868/2/6 865/2/6 869/2/6
f 866/2/6 867/2/6 870/2/6
f 870/2/6 867/2/6 871/2/6
f 868/20/6 869/20/6 872/20/6
f 872/20/6 869/20/6 873/20/6
f 870/20/6 871/20/6 874/20/6
f 874/20/6 871/20/6 875/20/6
f 872/15/6 873/15/6 876/15/6
f 876/15/6 873/15/6 877/15/6
f 878/2/6 879/2/6 882/2/6
f 879/1/6 880/1/6 883/1/6
f 882/2/6 879/2/6 883/2/6
f 883/1/6 880/1/6 884/1/6
f 881/17/6 882/17/6 886/17/6
f 882/2/6 883/2/6 887/2/6
f 886/17/6 882/17/6 887/17/6
f 883/2/6 884/2/6 887/2/6
f 884/17/6 885/17/6 888/17/6
f 887/2/6 884/2/6 888/2/6
f 888/17/6 885/17/6 889/17/6
f 886/5/6 887/5/6 890/5/6
f 890/5/6 887/5/6 891/5/6
f 888/5/6 889/5/6 892/5/6
f 892/5/6 889/5/6 893/5/6
f 891/1/6 892/1/6 894/1/6
f 894/1/6 892/1/6 895/1/6
f 894/19/6 895/19/6 896/19/6
f 896/19/6 895/19/6 897/19/6
f 897/19/6 895/19/6 898/19/6
f 899/2/6 900/2/6 903/2/6
f 903/2/6 900/2/6 904/2/6
f 901/2/6 902/2/6 905/2/6
f 905/2/6 902/2/6 906/2/6
f 903/1/6 904/1/6 907/1/6
f 907/1/6 904/1/6 908/1/6
f 905/1/6 906/1/6 909/1/6
f 909/1/6 906/1/6 910/1/6
f 911/1/6 912/1/6 917/1/6
f 912/2/6 913/2/6 918/2/6
f 917/1/6 912/1/6 918/1/6
f 918/2/6 913/2/6 919/2/6
f 914/2/6 915/2/6 920/2/6
f 915/1/6 916/1/6 921/1/6
f 920/2/6 915/2/6 921/2/6
f 921/1/6 916/1/6 922/1/6
f 917/2/6 918/2/6 923/2/6
f 918/1/6 919/1/6 924/1/6
f 923/2/6 918/2/6 924/2/6
f 924/1/6 919/1/6 925/1/6
f 920/1/6 921/1/6 926/1/6
f 921/2/6 922/2/6 927/2/6
f 926/1/6 921/1/6 927/1/6
f 927/2/6 922/2/6 928/2/6
f 929/7/6 930/7/6 931/7/6
f 931/7/6 930/7/6 932/7/6
f 931/8/6 932/8/6 933/8/6
f 933/8/6 932/8/6 934/8/6
f 933/2/6 934/2/6 935/2/6
f 935/2/6 934/2/6 936/2/6
f 935/19/6 936/19/6 937/19/6
f 937/19/6 936/19/6 938/19/6
